<?xml version="1.0" standalone="no"?><!DOCTYPE svg PUBLIC "-//W3C//DTD SVG 1.1//EN" "http://www.w3.org/Graphics/SVG/1.1/DTD/svg11.dtd"><svg t="1607246220652" class="icon" viewBox="0 0 1024 1024" version="1.1" xmlns="http://www.w3.org/2000/svg" p-id="6405" data-spm-anchor-id="a313x.7781069.0.i14" xmlns:xlink="http://www.w3.org/1999/xlink" width="200" height="200"><defs><style type="text/css"></style></defs><path d="M896 774l128-71.7L448 376l34-20-82-44 90-56-42-24-112 68-132 76 692 398z" opacity=".2" p-id="6406"></path><path d="M34 474l196 116 308 180 38 22v54L34 534v-60z" fill="#FFE571" p-id="6407"></path><path d="M576 846l320-184v-56l-320 186v54z" fill="#FFB230" p-id="6408" data-spm-anchor-id="a313x.7781069.0.i11" class=""></path><path d="M34 474l196 116 308 180 38 22 320-186-40-22-312-172-208-112-302 174z" fill="#FDFFCC" p-id="6409" data-spm-anchor-id="a313x.7781069.0.i12" class=""></path><path d="M34 534V314l-32-16v332l32 18v-74l64 38 440 256v72l38 22v-116L34 534z" fill="#FFB230" p-id="6410" data-spm-anchor-id="a313x.7781069.0.i13" class=""></path><path d="M576 962l320-188v-112l-320 184v116zM34 314l302-174v160L34 474v-160z" fill="#D67240" p-id="6411" data-spm-anchor-id="a313x.7781069.0.i10" class=""></path><path d="M2 298l302-174 32 16-302 174-32-16z" fill="#FFE571" p-id="6412"></path><path d="M130 380v40l90 52v-40l-90-52z" fill="#2CA7C7" p-id="6413"></path><path d="M220 432l128-70v40l-128 70v-40z" fill="#1296db" p-id="6414" data-spm-anchor-id="a313x.7781069.0.i15" class="selected"></path><path d="M130 380l128-68 90 50-128 70-90-52z" fill="#1296db" p-id="6415" data-spm-anchor-id="a313x.7781069.0.i8" class="selected"></path><path d="M230 590v140l308 178v-138l-308-180z" fill="#1296db" p-id="6416" data-spm-anchor-id="a313x.7781069.0.i18" class="selected"></path><path d="M544 412l-314 178 308 180 318-186-312-172z" fill="#1296db" p-id="6417" data-spm-anchor-id="a313x.7781069.0.i9" class="selected"></path><path d="M230 676l308 176v26l-308-178v-24z" fill="#FDFFCC" p-id="6418"></path><path d="M986 884.96L866 814l-184 108 117.48 71.5L986 884.96z" fill="#63D2E3" p-id="6419" data-spm-anchor-id="a313x.7781069.0.i16"></path><path d="M34 648l64-36-64-38v74z" fill="#D67240" p-id="6420"></path></svg>