<?xml version="1.0" standalone="no"?><!DOCTYPE svg PUBLIC "-//W3C//DTD SVG 1.1//EN" "http://www.w3.org/Graphics/SVG/1.1/DTD/svg11.dtd"><svg t="1607246498158" class="icon" viewBox="0 0 1024 1024" version="1.1" xmlns="http://www.w3.org/2000/svg" p-id="10804" xmlns:xlink="http://www.w3.org/1999/xlink" width="200" height="200"><defs><style type="text/css"></style></defs><path d="M994.742857 1024H29.257143V0h497.371428v321.536h468.114286z" fill="#FF6E6E" p-id="10805"></path><path d="M819.551086 936.228571v-87.478857h87.771428V936.228571h-87.771428z m0-234.349714h87.771428v88.298057h-87.771428V701.878857z m0-146.051657h87.771428v87.4496h-87.771428v-87.4496z m0-146.080914h87.771428V497.371429h-87.771428v-87.625143z m-146.285715 439.003428h87.771429V936.228571h-87.771429v-87.478857z m0-146.900114h87.771429v88.298057h-87.771429v-88.298057z m0-146.051657h87.771429v87.4496h-87.771429V555.797943z m0-146.080914h87.771429V497.371429h-87.771429v-87.6544zM526.628571 321.828571h58.514286v702.171429h-58.514286V321.828571zM146.110171 877.714286h263.665372v58.953143H146.110171V877.714286z m0-146.285715h263.665372v58.953143H146.110171v-59.128685V731.428571z m0-146.285714h263.665372v58.953143H146.110171v-59.1872V585.142857z m0-146.285714h263.665372v58.953143H146.110171v-59.216457V438.857143z m0-146.285714h263.665372v58.514285H146.110171V292.2496 292.571429z m0-146.285715h263.665372v58.514286H146.110171V145.905371 146.285714z" fill="#0C0058" p-id="10806"></path></svg>