<?xml version="1.0" standalone="no"?><!DOCTYPE svg PUBLIC "-//W3C//DTD SVG 1.1//EN" "http://www.w3.org/Graphics/SVG/1.1/DTD/svg11.dtd"><svg t="1607246451788" class="icon" viewBox="0 0 1024 1024" version="1.1" xmlns="http://www.w3.org/2000/svg" p-id="9141" xmlns:xlink="http://www.w3.org/1999/xlink" width="200" height="200"><defs><style type="text/css"></style></defs><path d="M304 1006.4h416V223.2C720 108.8 627.2 16 512 16S304 108.8 304 223.2v8c0 31.2 24.8 56 56 56s56-24.8 56-56v-4c0-52.8 40.8-98.4 92.8-100 54.4-1.6 99.2 41.6 99.2 96v8c0 84-68 152-152 152s-152 68-152 152v471.2z" fill="#e16531" p-id="9142" data-spm-anchor-id="a313x.7781069.0.i46" class="selected"></path><path d="M625.6 640.8c-30.4-29.6-78.4-29.6-108.8 0l-4.8 4.8-4.8-4.8c-30.4-29.6-78.4-29.6-108.8 0s-30.4 78.4 0 108.8L512 862.4l113.6-113.6c30.4-29.6 30.4-78.4 0-108z" fill="#FAEDD6" p-id="9143"></path><path d="M304 942.4h416v64H304z" fill="#e16531" p-id="9144" data-spm-anchor-id="a313x.7781069.0.i45" class="selected"></path><path d="M512 884.8L387.2 760C369.6 742.4 360 719.2 360 694.4c0-24.8 9.6-48 27.2-65.6 17.6-17.6 40.8-27.2 65.6-27.2 21.6 0 42.4 7.2 59.2 21.6 16.8-13.6 37.6-21.6 59.2-21.6 24.8 0 48 9.6 65.6 27.2 17.6 17.6 27.2 40.8 27.2 65.6 0 24.8-9.6 48-27.2 65.6L512 884.8z m-59.2-251.2c-16 0-32 6.4-43.2 17.6-11.2 11.2-17.6 27.2-17.6 43.2 0 16 6.4 32 17.6 43.2L512 840l102.4-102.4c11.2-11.2 17.6-27.2 17.6-43.2 0-16-6.4-32-17.6-43.2-11.2-11.2-27.2-17.6-43.2-17.6-16 0-32 6.4-43.2 17.6l-16 16-16-16c-12-11.2-27.2-17.6-43.2-17.6zM384 926.4h256v31.2H384z" fill="#232323" p-id="9145"></path><path d="M512 0C388.8 0 288 100 288 223.2v8c0 39.2 32 72 72 72 39.2 0 72-32 72-72v-4c0-44.8 35.2-83.2 77.6-84 21.6-0.8 42.4 7.2 58.4 22.4s24 36 24 57.6v8c0 75.2-60.8 136-136 136-92.8 0-168 75.2-168 167.2v487.2h448V223.2C736 100 635.2 0 512 0zM320 990.4v-32.8h32v-31.2H320V535.2c0-75.2 60.8-136 136-136 92.8 0 168-75.2 168-167.2v-8c0-30.4-12-59.2-33.6-80-21.6-20.8-51.2-32-81.6-31.2-60 0.8-108.8 52.8-108.8 114.4v4c0 22.4-18.4 40-40 40s-40-18.4-40-40v-8c0-105.6 86.4-192 192-192s192 86.4 192 192v703.2h-32v31.2h32v32.8H320z" fill="#232323" p-id="9146"></path><path d="M495.2 494.4h31.2v64.8h-31.2zM571.2 570.4l-22.4-22.4 32-32 22.4 22.4zM420.44 538.024l22.064-22.056 32.24 32.24-22.056 22.064z" fill="#FFFFFF" p-id="9147"></path></svg>