<?xml version="1.0" standalone="no"?><!DOCTYPE svg PUBLIC "-//W3C//DTD SVG 1.1//EN" "http://www.w3.org/Graphics/SVG/1.1/DTD/svg11.dtd"><svg t="1606037653594" class="icon" viewBox="0 0 1024 1024" version="1.1" xmlns="http://www.w3.org/2000/svg" p-id="3334" xmlns:xlink="http://www.w3.org/1999/xlink" width="200" height="200"><defs><style type="text/css"></style></defs><path d="M835.9 151.4H189.6c-69.1 0-125.2 56-125.2 125.2V745c0 69.1 56 125.2 125.2 125.2h646.3c69.1 0 125.2-56 125.2-125.2V276.6c0-69.2-56.1-125.2-125.2-125.2zM686.8 326.2c56.9 0 103 46.1 103 103s-46.1 103-103 103-103-46.1-103-103c0.1-56.9 46.2-103 103-103zM357.5 686.6H183.8c-22.1 0-40-17.9-40-40s17.9-40 40-40h173.7c22.1 0 40 17.9 40 40s-17.9 40-40 40z m0-138.2H183.8c-22.1 0-40-17.9-40-40s17.9-40 40-40h173.7c22.1 0 40 17.9 40 40s-17.9 40-40 40z m0-138.3H183.8c-22.1 0-40-17.9-40-40s17.9-40 40-40h173.7c22.1 0 40 17.9 40 40s-17.9 40-40 40z m452.8 285.3H562.6c-39.4 0-71.3-31.9-71.3-71.3s31.9-71.3 71.3-71.3h247.7c39.4 0 71.3 31.9 71.3 71.3 0 39.3-31.9 71.3-71.3 71.3z" p-id="3335" fill="#1296db"></path></svg>